{"title":"Dead in Tombstone  (Western Fantasy 2013)  Danny Trejo, Mickey R","uid":9269737,"size":696220755,"categoryP":"video","categoryS":"movies","magnet":"?xt=urn:btih:2996296fb00d44fc952ac34dac6eba059982fb68&amp;dn=Dead+in+Tombstone++%28Western+Fantasy+2013%29++Danny+Trejo%2C+Mickey+R&amp;tr=udp%3A%2F%2Ftracker.openbittorrent.com%3A80&amp;tr=udp%3A%2F%2Fopen.demonii.com%3A1337&amp;tr=udp%3A%2F%2Ftracker.coppersurfer.tk%3A6969&amp;tr=udp%3A%2F%2Fexodus.desync.com%3A6969","seeders":1,"leechers":1,"uploader":"BurtonW","files":1,"time":1385752856,"description":" &lt;a href=&quot;http://www.imdb.com/title/tt2268419/?ref_=fn_al_tt_1&quot; rel=&quot;nofollow&quot; target=&quot;_NEW&quot;&gt;http://www.imdb.com/title/tt2268419/?ref_=fn_al_tt_1&lt;/a&gt;\n\n\nExcellent quality film!\n\n\nNo subtitles!\n\n\n\nStoryline:\n\nA gang overruns a small mining town murdering their own leader Guerrero (Trejo) in a cold-blooded power grab. Sentenced to eternity in hell he finds himself confronted by Satan himself (Rourke), offering a daring proposition: deliver the six souls of his former gang and he will escape damnation. With time running out, he sets out on a brutal rampage to avenge his own death.\n\n\nTechnical info:\n\n\nGeneral:\n\nComplete name                  : Dead in Tombstone  (Western Fantasy 2013)  Danny Trejo, Mickey Rourke &amp; Anthony Michael Hall.mp4\n\nFormat                         : MPEG-4\nFormat profile                 : Base Media / Version 2\nCodec ID                       : mp42\nFile size                      : 664 MiB\nDuration                       : 1h 39mn\nOverall bit rate mode          : Variable\nOverall bit rate               : 929 Kbps\nEncoded date                   : UTC 2013-10-02 22:53:35\nTagged date                    : UTC 2013-10-03 02:10:48\n\n\nVideo:\n\nID                             : 1\nFormat                         : AVC\nFormat/Info                    : Advanced Video Codec\nFormat profile                 : &lt;a class=&quot;__cf_email__&quot; href=&quot;/cdn-cgi/l/email-protection&quot; data-cfemail=&quot;c78aa6aea9878bf3e9f7&quot;&gt;[email&amp;#160;protected]&lt;/a&gt;&lt;script cf-hash='f9e31' type=&quot;text/javascript&quot;&gt;\n/* &lt;![CDATA[ */!function(){try{var t=&quot;currentScript&quot;in document?document.currentScript:function(){for(var t=document.getElementsByTagName(&quot;script&quot;),e=t.length;e--;)if(t[e].getAttribute(&quot;cf-hash&quot;))return t[e]}();if(t&amp;&amp;t.previousSibling){var e,r,n,i,c=t.previousSibling,a=c.getAttribute(&quot;data-cfemail&quot;);if(a){for(e=&quot;&quot;,r=parseInt(a.substr(0,2),16),n=2;a.length-n;n+=2)i=parseInt(a.substr(n,2),16)^r,e+=String.fromCharCode(i);e=document.createTextNode(e),c.parentNode.replaceChild(e,c)}}}catch(u){}}();/* ]]&gt; */&lt;/script&gt;\nFormat settings, CABAC         : Yes\nFormat settings, ReFrames      : 4 frames\nCodec ID                       : avc1\nCodec ID/Info                  : Advanced Video Coding\nDuration                       : 1h 39mn\nBit rate mode                  : Variable\nBit rate                       : 768 Kbps\nWidth                          : 720 pixels\nHeight                         : 480 pixels\nDisplay aspect ratio           : 3:2\nFrame rate mode                : Constant\nFrame rate                     : 24.000 fps\nStandard                       : NTSC\nColor space                    : YUV\nChroma subsampling             : 4:2:0\nBit depth                      : 8 bits\nScan type                      : Progressive\nBits/(Pixel*Frame)             : 0.093\nStream size                    : 547 MiB (82%)\nWriting library                : x264 core 130 r2273 b3065e6\nEncoding settings              : Deleted\nEncoded date                   : UTC 2013-10-02 22:53:35\nTagged date                    : UTC 2013-10-03 02:10:48\nColor primaries                : BT.709\nTransfer characteristics       : BT.709\nMatrix coefficients            : BT.709\n\nAudio:\n\nID                             : 2\nFormat                         : AAC\nFormat/Info                    : Advanced Audio Codec\nFormat profile                 : LC\nCodec ID                       : 40\nDuration                       : 1h 39mn\nBit rate mode                  : Variable\nBit rate                       : 160 Kbps\nMaximum bit rate               : 266 Kbps\nChannel(s)                     : 2 channels\nChannel positions              : Front: L R\nSampling rate                  : 48.0 KHz\nCompression mode               : Lossy\nDelay relative to video        : 83ms\nStream size                    : 114 MiB (17%)\nLanguage                       : English\nEncoded date                   : UTC 2013-10-02 22:53:35\nTagged date                    : UTC 2013-10-03 02:10:47\n\n","torrent":{"xt":"urn:btih:2996296fb00d44fc952ac34dac6eba059982fb68","amp;dn":"Dead+in+Tombstone++%28Western+Fantasy+2013%29++Danny+Trejo%2C+Mickey+R","amp;tr":["udp%3A%2F%2Ftracker.openbittorrent.com%3A80","udp%3A%2F%2Fopen.demonii.com%3A1337","udp%3A%2F%2Ftracker.coppersurfer.tk%3A6969","udp%3A%2F%2Fexodus.desync.com%3A6969"],"infoHash":"2996296fb00d44fc952ac34dac6eba059982fb68","infoHashBuffer":{"type":"Buffer","data":[41,150,41,111,176,13,68,252,149,42,195,77,172,110,186,5,153,130,251,104]},"announce":[],"urlList":[]}}